<?xml version="1.0" encoding="UTF-8" standalone="no"?>
<svg xmlns="http://www.w3.org/2000/svg" viewBox="0 0 512 512" width="512" height="512">
  <rect width="512" height="512" fill="#0f766e" rx="128" ry="128"/>
  <g fill="#ffffff">
    <!-- TV Icon -->
    <path d="M128 160h256c8.8 0 16 7.2 16 16v160c0 8.8-7.2 16-16 16H128c-8.8 0-16-7.2-16-16V176c0-8.8 7.2-16 16-16z"/>
    <path d="M96 128h320c17.7 0 32 14.3 32 32v192c0 17.7-14.3 32-32 32H96c-17.7 0-32-14.3-32-32V160c0-17.7 14.3-32 32-32zm0 32v192h320V160H96z" fill-rule="evenodd"/>
    <!-- Stand -->
    <path d="M240 384h32v48h-32z"/>
    <path d="M208 432h96v16H208z"/>
    <!-- WiFi/Signal -->
    <path d="M192 224c8.8 0 16 7.2 16 16v64c0 8.8-7.2 16-16 16s-16-7.2-16-16v-64c0-8.8 7.2-16 16-16z"/>
    <path d="M288 224c8.8 0 16 7.2 16 16v64c0 8.8-7.2 16-16 16s-16-7.2-16-16v-64c0-8.8 7.2-16 16-16z"/>
    <!-- Signal Arc -->
    <path d="M240 208c-39.8 0-72 32.2-72 72s32.2 72 72 72 72-32.2 72-72-32.2-72-72-72zm0 16c30.9 0 56 25.1 56 56s-25.1 56-56 56-56-25.1-56-56 25.1-56 56-56z" fill-rule="evenodd"/>
    <path d="M240 176c-57.4 0-104 46.6-104 104s46.6 104 104 104 104-46.6 104-104S297.4 176 240 176zm0 16c48.6 0 88 39.4 88 88s-39.4 88-88 88-88-39.4-88-88 39.4-88 88-88z" fill-rule="evenodd"/>
  </g>
</svg>