
    <svg xmlns="http://www.w3.org/2000/svg" width="200" height="200" viewBox="0 0 200 200">
      <rect width="200" height="200" fill="#f3f4f6" rx="8" ry="8"/>
      <g fill="#9ca3af">
        <path d="M100 70c-22.1 0-40 17.9-40 40 0 22.1 17.9 40 40 40 22.1 0 40-17.9 40-40 0-22.1-17.9-40-40-40zm0 72c-17.7 0-32-14.3-32-32s14.3-32 32-32 32 14.3 32 32-14.3 32-32 32z"/>
        <path d="M126.4 81.6L81.6 126.4c-1.6 1.6-1.6 4.1 0 5.7.8.8 1.8 1.2 2.8 1.2s2.1-.4 2.8-1.2l44.8-44.8c1.6-1.6 1.6-4.1 0-5.7-1.5-1.6-4.1-1.6-5.6 0z"/>
      </g>
      <text x="100" y="160" font-family="sans-serif" font-size="14" text-anchor="middle" fill="#6b7280">Image unavailable</text>
    </svg>