<?xml version="1.0" encoding="UTF-8"?>
<svg width="400" height="200" viewBox="0 0 400 200" fill="none" xmlns="http://www.w3.org/2000/svg">
  <!-- Background -->
  <rect width="400" height="200" rx="8" fill="#F3F4F6"/>
  
  <!-- Help Center Card -->
  <rect x="120" y="40" width="160" height="120" rx="4" fill="white" stroke="#D1D5DB" stroke-width="2"/>
  
  <!-- Card Title -->
  <text x="200" y="60" font-family="Arial" font-size="14" font-weight="bold" fill="#1F2937" text-anchor="middle">Help Assistant</text>
  
  <!-- Question Mark Icon -->
  <circle cx="200" cy="90" r="20" fill="#3B82F6"/>
  <text x="200" y="96" font-family="Arial" font-size="20" font-weight="bold" fill="white" text-anchor="middle">?</text>
  
  <!-- Help Text -->
  <text x="200" y="130" font-family="Arial" font-size="10" fill="#4B5563" text-anchor="middle">Tap for help at any time</text>
  <text x="200" y="145" font-family="Arial" font-size="10" fill="#4B5563" text-anchor="middle">during your booking process</text>
  
  <!-- Helper Characters -->
  <circle cx="320" cy="100" r="20" fill="#E5E7EB"/>
  <text x="320" y="106" font-family="Arial" font-size="20" fill="#4B5563" text-anchor="middle">👩</text>
  
  <circle cx="80" cy="100" r="20" fill="#E5E7EB"/>
  <text x="80" y="106" font-family="Arial" font-size="20" fill="#4B5563" text-anchor="middle">👨</text>
  
  <!-- Speech Bubbles -->
  <path d="M100 80L120 80C125.523 80 130 84.4772 130 90L130 100C130 105.523 125.523 110 120 110L100 110L105 120L100 110C94.4772 110 90 105.523 90 100L90 90C90 84.4772 94.4772 80 100 80Z" fill="#3B82F6" fill-opacity="0.1" stroke="#3B82F6" stroke-width="1"/>
  <text x="110" y="100" font-family="Arial" font-size="8" fill="#1E40AF" text-anchor="middle">Need help?</text>
  
  <path d="M300 80L280 80C274.477 80 270 84.4772 270 90L270 100C270 105.523 274.477 110 280 110L300 110L295 120L300 110C305.523 110 310 105.523 310 100L310 90C310 84.4772 305.523 80 300 80Z" fill="#3B82F6" fill-opacity="0.1" stroke="#3B82F6" stroke-width="1"/>
  <text x="290" y="100" font-family="Arial" font-size="8" fill="#1E40AF" text-anchor="middle">I'm here!</text>
</svg>