<?xml version="1.0" encoding="UTF-8" standalone="no"?>
<svg xmlns="http://www.w3.org/2000/svg" width="512" height="512" viewBox="0 0 512 512" fill="none">
  <!-- Path version that doesn't rely on text element -->
  <rect width="512" height="512" rx="100" fill="#0C4A6E"/>
  
  <!-- PPTV as paths instead of text -->
  <path d="M107 330V178H159C172.333 178 183.667 180.333 193 185C202.333 189.667 209.333 196.333 214 205C218.667 213.667 221 223.667 221 235C221 246.333 218.667 256.333 214 265C209.333 273.667 202.333 280.333 193 285C183.667 289.667 172.333 292 159 292H141V330H107Z" fill="white"/>
  <path d="M141 263H157C166.333 263 173.667 260.667 179 256C184.333 251.333 187 244.333 187 235C187 225.667 184.333 218.667 179 214C173.667 209.333 166.333 207 157 207H141V263Z" fill="#0C4A6E"/>
  
  <path d="M229 330V178H281C294.333 178 305.667 180.333 315 185C324.333 189.667 331.333 196.333 336 205C340.667 213.667 343 223.667 343 235C343 246.333 340.667 256.333 336 265C331.333 273.667 324.333 280.333 315 285C305.667 289.667 294.333 292 281 292H263V330H229Z" fill="white"/>
  <path d="M263 263H279C288.333 263 295.667 260.667 301 256C306.333 251.333 309 244.333 309 235C309 225.667 306.333 218.667 301 214C295.667 209.333 288.333 207 279 207H263V263Z" fill="#0C4A6E"/>
  
  <path d="M355 330V178H434V207H389V240H430V269H389V330H355Z" fill="white"/>
  
  <path d="M445 330L483 178H521L559 330H524L515 298H489L480 330H445Z" fill="white"/>
  <path d="M495 270H509L502 240L495 270Z" fill="#0C4A6E"/>
</svg>
